<svg width="156" height="180" viewBox="0 0 156 180" fill="none" xmlns="http://www.w3.org/2000/svg">
<path d="M78.75 21.567L78.5 21.4226L78.25 21.567L19.7933 55.317L19.5433 55.4613V55.75V123.25V123.539L19.7933 123.683L78.25 157.433L78.5 157.577L78.75 157.433L137.207 123.683L137.457 123.539V123.25V55.75V55.4613L137.207 55.317L78.75 21.567ZM78.25 44.567L78 44.4226L77.75 44.567L38.7789 67.067L38.5289 67.2113V67.5V112.5V112.789L38.7789 112.933L77.75 135.433L78 135.577L78.25 135.433L117.221 112.933L117.471 112.789V112.5V67.5V67.2113L117.221 67.067L78.25 44.567ZM78.75 66.567L78.5 66.4227L78.25 66.567L58.7644 77.817L58.5144 77.9613V78.25V100.75V101.039L58.7644 101.183L78.25 112.433L78.5 112.577L78.75 112.433L98.2356 101.183L98.4856 101.039V100.75V78.25V77.9613L98.2356 77.817L78.75 66.567ZM78.4999 78.567L78.2499 78.4227L77.9999 78.567L68.2572 84.192L68.0072 84.3363V84.625V95.875V96.1637L68.2572 96.308L77.9999 101.933L78.2499 102.077L78.4999 101.933L88.2427 96.308L88.4927 96.1637V95.875V84.625V84.3363L88.2427 84.192L78.4999 78.567ZM78 0.57735L155.442 45.2887V134.711L78 179.423L0.557709 134.711V45.2887L78 0.57735ZM78.5 22.5773L136.457 56.0387V122.961L78.5 156.423L20.5433 122.961V56.0387L78.5 22.5773ZM78 45.5774L116.471 67.7887V112.211L78 134.423L39.5289 112.211V67.7887L78 45.5774ZM59.5144 78.5387L78.5 67.5774L97.4856 78.5387V100.461L78.5 111.423L59.5144 100.461V78.5387ZM69.0072 84.9137L78.2499 79.5774L87.4927 84.9137V95.5863L78.2499 100.923L69.0072 95.5863V84.9137Z" stroke="white"/>
</svg>
