<svg width="248" height="224" viewBox="0 0 248 224" fill="none" xmlns="http://www.w3.org/2000/svg">
<path d="M6.82227 66.2227C6.73633 67.1328 6.40039 67.8438 5.81445 68.3555C5.22852 68.8633 4.44922 69.1172 3.47656 69.1172C2.79688 69.1172 2.19727 68.957 1.67773 68.6367C1.16211 68.3125 0.763672 67.8535 0.482422 67.2598C0.201172 66.666 0.0546875 65.9766 0.0429688 65.1914V64.3945C0.0429688 63.5898 0.185547 62.8809 0.470703 62.2676C0.755859 61.6543 1.16406 61.1816 1.69531 60.8496C2.23047 60.5176 2.84766 60.3516 3.54688 60.3516C4.48828 60.3516 5.24609 60.6074 5.82031 61.1191C6.39453 61.6309 6.72852 62.3535 6.82227 63.2871H5.3457C5.27539 62.6738 5.0957 62.2324 4.80664 61.9629C4.52148 61.6895 4.10156 61.5527 3.54688 61.5527C2.90234 61.5527 2.40625 61.7891 2.05859 62.2617C1.71484 62.7305 1.53906 63.4199 1.53125 64.3301V65.0859C1.53125 66.0078 1.69531 66.7109 2.02344 67.1953C2.35547 67.6797 2.83984 67.9219 3.47656 67.9219C4.05859 67.9219 4.49609 67.791 4.78906 67.5293C5.08203 67.2676 5.26758 66.832 5.3457 66.2227H6.82227Z" fill="white"/>
<path d="M11.8027 69C11.7402 68.8789 11.6855 68.6816 11.6387 68.4082C11.1855 68.8809 10.6309 69.1172 9.97461 69.1172C9.33789 69.1172 8.81836 68.9355 8.41602 68.5723C8.01367 68.209 7.8125 67.7598 7.8125 67.2246C7.8125 66.5488 8.0625 66.0312 8.5625 65.6719C9.06641 65.3086 9.78516 65.127 10.7188 65.127H11.5918V64.7109C11.5918 64.3828 11.5 64.1211 11.3164 63.9258C11.1328 63.7266 10.8535 63.627 10.4785 63.627C10.1543 63.627 9.88867 63.709 9.68164 63.873C9.47461 64.0332 9.37109 64.2383 9.37109 64.4883H7.94727C7.94727 64.1406 8.0625 63.8164 8.29297 63.5156C8.52344 63.2109 8.83594 62.9727 9.23047 62.8008C9.62891 62.6289 10.0723 62.543 10.5605 62.543C11.3027 62.543 11.8945 62.7305 12.3359 63.1055C12.7773 63.4766 13.0039 64 13.0156 64.6758V67.5352C13.0156 68.1055 13.0957 68.5605 13.2559 68.9004V69H11.8027ZM10.2383 67.9746C10.5195 67.9746 10.7832 67.9062 11.0293 67.7695C11.2793 67.6328 11.4668 67.4492 11.5918 67.2188V66.0234H10.8242C10.2969 66.0234 9.90039 66.1152 9.63477 66.2988C9.36914 66.4824 9.23633 66.7422 9.23633 67.0781C9.23633 67.3516 9.32617 67.5703 9.50586 67.7344C9.68945 67.8945 9.93359 67.9746 10.2383 67.9746Z" fill="white"/>
<path d="M17.8262 63.9609C17.6387 63.9297 17.4453 63.9141 17.2461 63.9141C16.5938 63.9141 16.1543 64.1641 15.9277 64.6641V69H14.5039V62.6602H15.8633L15.8984 63.3691C16.2422 62.8184 16.7188 62.543 17.3281 62.543C17.5312 62.543 17.6992 62.5703 17.832 62.625L17.8262 63.9609Z" fill="white"/>
<path d="M18.3418 65.7832C18.3418 64.8066 18.5684 64.0234 19.0215 63.4336C19.4746 62.8398 20.082 62.543 20.8438 62.543C21.5156 62.543 22.0586 62.7773 22.4727 63.2461V60H23.8965V69H22.6074L22.5371 68.3438C22.1113 68.8594 21.543 69.1172 20.832 69.1172C20.0898 69.1172 19.4883 68.8184 19.0273 68.2207C18.5703 67.623 18.3418 66.8105 18.3418 65.7832ZM19.7656 65.9062C19.7656 66.5508 19.8887 67.0547 20.1348 67.418C20.3848 67.7773 20.7383 67.957 21.1953 67.957C21.7773 67.957 22.2031 67.6973 22.4727 67.1777V64.4707C22.2109 63.9629 21.7891 63.709 21.207 63.709C20.7461 63.709 20.3906 63.8926 20.1406 64.2598C19.8906 64.623 19.7656 65.1719 19.7656 65.9062Z" fill="white"/>
<path d="M26.8965 69H25.4727V62.6602H26.8965V69ZM25.3848 61.0137C25.3848 60.7949 25.4531 60.6133 25.5898 60.4688C25.7305 60.3242 25.9297 60.252 26.1875 60.252C26.4453 60.252 26.6445 60.3242 26.7852 60.4688C26.9258 60.6133 26.9961 60.7949 26.9961 61.0137C26.9961 61.2285 26.9258 61.4082 26.7852 61.5527C26.6445 61.6934 26.4453 61.7637 26.1875 61.7637C25.9297 61.7637 25.7305 61.6934 25.5898 61.5527C25.4531 61.4082 25.3848 61.2285 25.3848 61.0137Z" fill="white"/>
<path d="M28.1855 65.7715C28.1855 65.1504 28.3086 64.5918 28.5547 64.0957C28.8008 63.5957 29.1465 63.2129 29.5918 62.9473C30.0371 62.6777 30.5488 62.543 31.127 62.543C31.9824 62.543 32.6758 62.8184 33.207 63.3691C33.7422 63.9199 34.0312 64.6504 34.0742 65.5605L34.0801 65.8945C34.0801 66.5195 33.959 67.0781 33.7168 67.5703C33.4785 68.0625 33.1348 68.4434 32.6855 68.7129C32.2402 68.9824 31.7246 69.1172 31.1387 69.1172C30.2441 69.1172 29.5273 68.8203 28.9883 68.2266C28.4531 67.6289 28.1855 66.834 28.1855 65.8418V65.7715ZM29.6094 65.8945C29.6094 66.5469 29.7441 67.0586 30.0137 67.4297C30.2832 67.7969 30.6582 67.9805 31.1387 67.9805C31.6191 67.9805 31.9922 67.793 32.2578 67.418C32.5273 67.043 32.6621 66.4941 32.6621 65.7715C32.6621 65.1309 32.5234 64.623 32.2461 64.248C31.9727 63.873 31.5996 63.6855 31.127 63.6855C30.6621 63.6855 30.293 63.8711 30.0195 64.2422C29.7461 64.6094 29.6094 65.1602 29.6094 65.8945Z" fill="white"/>
<path d="M213.492 68.8027C213.492 68.4277 213.359 68.1387 213.094 67.9355C212.832 67.7324 212.357 67.5273 211.67 67.3203C210.982 67.1133 210.436 66.8828 210.029 66.6289C209.252 66.1406 208.863 65.5039 208.863 64.7188C208.863 64.0312 209.143 63.4648 209.701 63.0195C210.264 62.5742 210.992 62.3516 211.887 62.3516C212.48 62.3516 213.01 62.4609 213.475 62.6797C213.939 62.8984 214.305 63.2109 214.57 63.6172C214.836 64.0195 214.969 64.4668 214.969 64.959H213.492C213.492 64.5137 213.352 64.166 213.07 63.916C212.793 63.6621 212.395 63.5352 211.875 63.5352C211.391 63.5352 211.014 63.6387 210.744 63.8457C210.479 64.0527 210.346 64.3418 210.346 64.7129C210.346 65.0254 210.49 65.2871 210.779 65.498C211.068 65.7051 211.545 65.9082 212.209 66.1074C212.873 66.3027 213.406 66.5273 213.809 66.7812C214.211 67.0312 214.506 67.3203 214.693 67.6484C214.881 67.9727 214.975 68.3535 214.975 68.791C214.975 69.502 214.701 70.0684 214.154 70.4902C213.611 70.9082 212.873 71.1172 211.939 71.1172C211.322 71.1172 210.754 71.0039 210.234 70.7773C209.719 70.5469 209.316 70.2305 209.027 69.8281C208.742 69.4258 208.6 68.957 208.6 68.4219H210.082C210.082 68.9062 210.242 69.2812 210.562 69.5469C210.883 69.8125 211.342 69.9453 211.939 69.9453C212.455 69.9453 212.842 69.8418 213.1 69.6348C213.361 69.4238 213.492 69.1465 213.492 68.8027Z" fill="white"/>
<path d="M221.689 67.8945C221.689 68.875 221.467 69.6582 221.021 70.2441C220.576 70.8262 219.979 71.1172 219.229 71.1172C218.533 71.1172 217.977 70.8887 217.559 70.4316V73.4375H216.135V64.6602H217.447L217.506 65.3047C217.924 64.7969 218.492 64.543 219.211 64.543C219.984 64.543 220.59 64.832 221.027 65.4102C221.469 65.9844 221.689 66.7832 221.689 67.8066V67.8945ZM220.271 67.7715C220.271 67.1387 220.145 66.6367 219.891 66.2656C219.641 65.8945 219.281 65.709 218.812 65.709C218.23 65.709 217.812 65.9492 217.559 66.4297V69.2422C217.816 69.7344 218.238 69.9805 218.824 69.9805C219.277 69.9805 219.631 69.7988 219.885 69.4355C220.143 69.0684 220.271 68.5137 220.271 67.7715Z" fill="white"/>
<path d="M225.691 71.1172C224.789 71.1172 224.057 70.834 223.494 70.2676C222.936 69.6973 222.656 68.9395 222.656 67.9941V67.8184C222.656 67.1855 222.777 66.6211 223.02 66.125C223.266 65.625 223.609 65.2363 224.051 64.959C224.492 64.6816 224.984 64.543 225.527 64.543C226.391 64.543 227.057 64.8184 227.525 65.3691C227.998 65.9199 228.234 66.6992 228.234 67.707V68.2812H224.092C224.135 68.8047 224.309 69.2188 224.613 69.5234C224.922 69.8281 225.309 69.9805 225.773 69.9805C226.426 69.9805 226.957 69.7168 227.367 69.1895L228.135 69.9219C227.881 70.3008 227.541 70.5957 227.115 70.8066C226.693 71.0137 226.219 71.1172 225.691 71.1172ZM225.521 65.6855C225.131 65.6855 224.814 65.8223 224.572 66.0957C224.334 66.3691 224.182 66.75 224.115 67.2383H226.828V67.1328C226.797 66.6562 226.67 66.2969 226.447 66.0547C226.225 65.8086 225.916 65.6855 225.521 65.6855Z" fill="white"/>
<path d="M232.137 71.1172C231.234 71.1172 230.502 70.834 229.939 70.2676C229.381 69.6973 229.102 68.9395 229.102 67.9941V67.8184C229.102 67.1855 229.223 66.6211 229.465 66.125C229.711 65.625 230.055 65.2363 230.496 64.959C230.938 64.6816 231.43 64.543 231.973 64.543C232.836 64.543 233.502 64.8184 233.971 65.3691C234.443 65.9199 234.68 66.6992 234.68 67.707V68.2812H230.537C230.58 68.8047 230.754 69.2188 231.059 69.5234C231.367 69.8281 231.754 69.9805 232.219 69.9805C232.871 69.9805 233.402 69.7168 233.812 69.1895L234.58 69.9219C234.326 70.3008 233.986 70.5957 233.561 70.8066C233.139 71.0137 232.664 71.1172 232.137 71.1172ZM231.967 65.6855C231.576 65.6855 231.26 65.8223 231.018 66.0957C230.779 66.3691 230.627 66.75 230.561 67.2383H233.273V67.1328C233.242 66.6562 233.115 66.2969 232.893 66.0547C232.67 65.8086 232.361 65.6855 231.967 65.6855Z" fill="white"/>
<path d="M235.523 67.7832C235.523 66.8066 235.75 66.0234 236.203 65.4336C236.656 64.8398 237.264 64.543 238.025 64.543C238.697 64.543 239.24 64.7773 239.654 65.2461V62H241.078V71H239.789L239.719 70.3438C239.293 70.8594 238.725 71.1172 238.014 71.1172C237.271 71.1172 236.67 70.8184 236.209 70.2207C235.752 69.623 235.523 68.8105 235.523 67.7832ZM236.947 67.9062C236.947 68.5508 237.07 69.0547 237.316 69.418C237.566 69.7773 237.92 69.957 238.377 69.957C238.959 69.957 239.385 69.6973 239.654 69.1777V66.4707C239.393 65.9629 238.971 65.709 238.389 65.709C237.928 65.709 237.572 65.8926 237.322 66.2598C237.072 66.623 236.947 67.1719 236.947 67.9062Z" fill="white"/>
<path d="M99.8535 219.191H96.3496V221.816H100.445V223H94.8672V214.469H100.404V215.664H96.3496V218.02H99.8535V219.191Z" fill="white"/>
<path d="M102.836 216.66L102.877 217.393C103.346 216.826 103.961 216.543 104.723 216.543C106.043 216.543 106.715 217.299 106.738 218.811V223H105.314V218.893C105.314 218.49 105.227 218.193 105.051 218.002C104.879 217.807 104.596 217.709 104.201 217.709C103.627 217.709 103.199 217.969 102.918 218.488V223H101.494V216.66H102.836Z" fill="white"/>
<path d="M107.928 219.783C107.928 218.807 108.154 218.023 108.607 217.434C109.061 216.84 109.668 216.543 110.43 216.543C111.102 216.543 111.645 216.777 112.059 217.246V214H113.482V223H112.193L112.123 222.344C111.697 222.859 111.129 223.117 110.418 223.117C109.676 223.117 109.074 222.818 108.613 222.221C108.156 221.623 107.928 220.811 107.928 219.783ZM109.352 219.906C109.352 220.551 109.475 221.055 109.721 221.418C109.971 221.777 110.324 221.957 110.781 221.957C111.363 221.957 111.789 221.697 112.059 221.178V218.471C111.797 217.963 111.375 217.709 110.793 217.709C110.332 217.709 109.977 217.893 109.727 218.26C109.477 218.623 109.352 219.172 109.352 219.906Z" fill="white"/>
<path d="M118.809 222.379C118.391 222.871 117.797 223.117 117.027 223.117C116.34 223.117 115.818 222.916 115.463 222.514C115.111 222.111 114.936 221.529 114.936 220.768V216.66H116.359V220.75C116.359 221.555 116.693 221.957 117.361 221.957C118.053 221.957 118.52 221.709 118.762 221.213V216.66H120.186V223H118.844L118.809 222.379Z" fill="white"/>
<path d="M124.955 217.961C124.768 217.93 124.574 217.914 124.375 217.914C123.723 217.914 123.283 218.164 123.057 218.664V223H121.633V216.66H122.992L123.027 217.369C123.371 216.818 123.848 216.543 124.457 216.543C124.66 216.543 124.828 216.57 124.961 216.625L124.955 217.961Z" fill="white"/>
<path d="M129.467 223C129.404 222.879 129.35 222.682 129.303 222.408C128.85 222.881 128.295 223.117 127.639 223.117C127.002 223.117 126.482 222.936 126.08 222.572C125.678 222.209 125.477 221.76 125.477 221.225C125.477 220.549 125.727 220.031 126.227 219.672C126.73 219.309 127.449 219.127 128.383 219.127H129.256V218.711C129.256 218.383 129.164 218.121 128.98 217.926C128.797 217.727 128.518 217.627 128.143 217.627C127.818 217.627 127.553 217.709 127.346 217.873C127.139 218.033 127.035 218.238 127.035 218.488H125.611C125.611 218.141 125.727 217.816 125.957 217.516C126.188 217.211 126.5 216.973 126.895 216.801C127.293 216.629 127.736 216.543 128.225 216.543C128.967 216.543 129.559 216.73 130 217.105C130.441 217.477 130.668 218 130.68 218.676V221.535C130.68 222.105 130.76 222.561 130.92 222.9V223H129.467ZM127.902 221.975C128.184 221.975 128.447 221.906 128.693 221.77C128.943 221.633 129.131 221.449 129.256 221.219V220.023H128.488C127.961 220.023 127.564 220.115 127.299 220.299C127.033 220.482 126.9 220.742 126.9 221.078C126.9 221.352 126.99 221.57 127.17 221.734C127.354 221.895 127.598 221.975 127.902 221.975Z" fill="white"/>
<path d="M133.492 216.66L133.533 217.393C134.002 216.826 134.617 216.543 135.379 216.543C136.699 216.543 137.371 217.299 137.395 218.811V223H135.971V218.893C135.971 218.49 135.883 218.193 135.707 218.002C135.535 217.807 135.252 217.709 134.857 217.709C134.283 217.709 133.855 217.969 133.574 218.488V223H132.15V216.66H133.492Z" fill="white"/>
<path d="M141.455 221.98C141.811 221.98 142.105 221.877 142.34 221.67C142.574 221.463 142.699 221.207 142.715 220.902H144.057C144.041 221.297 143.918 221.666 143.688 222.01C143.457 222.35 143.145 222.619 142.75 222.818C142.355 223.018 141.93 223.117 141.473 223.117C140.586 223.117 139.883 222.83 139.363 222.256C138.844 221.682 138.584 220.889 138.584 219.877V219.73C138.584 218.766 138.842 217.994 139.357 217.416C139.873 216.834 140.576 216.543 141.467 216.543C142.221 216.543 142.834 216.764 143.307 217.205C143.783 217.643 144.033 218.219 144.057 218.934H142.715C142.699 218.57 142.574 218.271 142.34 218.037C142.109 217.803 141.814 217.686 141.455 217.686C140.994 217.686 140.639 217.854 140.389 218.189C140.139 218.521 140.012 219.027 140.008 219.707V219.936C140.008 220.623 140.131 221.137 140.377 221.477C140.627 221.812 140.986 221.98 141.455 221.98Z" fill="white"/>
<path d="M147.924 223.117C147.021 223.117 146.289 222.834 145.727 222.268C145.168 221.697 144.889 220.939 144.889 219.994V219.818C144.889 219.186 145.01 218.621 145.252 218.125C145.498 217.625 145.842 217.236 146.283 216.959C146.725 216.682 147.217 216.543 147.76 216.543C148.623 216.543 149.289 216.818 149.758 217.369C150.23 217.92 150.467 218.699 150.467 219.707V220.281H146.324C146.367 220.805 146.541 221.219 146.846 221.523C147.154 221.828 147.541 221.98 148.006 221.98C148.658 221.98 149.189 221.717 149.6 221.189L150.367 221.922C150.113 222.301 149.773 222.596 149.348 222.807C148.926 223.014 148.451 223.117 147.924 223.117ZM147.754 217.686C147.363 217.686 147.047 217.822 146.805 218.096C146.566 218.369 146.414 218.75 146.348 219.238H149.061V219.133C149.029 218.656 148.902 218.297 148.68 218.055C148.457 217.809 148.148 217.686 147.754 217.686Z" fill="white"/>
<path d="M102.131 9H100.654V0.46875H102.131V9Z" fill="white"/>
<path d="M105.137 2.66016L105.178 3.39258C105.646 2.82617 106.262 2.54297 107.023 2.54297C108.344 2.54297 109.016 3.29883 109.039 4.81055V9H107.615V4.89258C107.615 4.49023 107.527 4.19336 107.352 4.00195C107.18 3.80664 106.896 3.70898 106.502 3.70898C105.928 3.70898 105.5 3.96875 105.219 4.48828V9H103.795V2.66016H105.137Z" fill="white"/>
<path d="M112.279 1.11914V2.66016H113.398V3.71484H112.279V7.25391C112.279 7.49609 112.326 7.67188 112.42 7.78125C112.518 7.88672 112.689 7.93945 112.936 7.93945C113.1 7.93945 113.266 7.91992 113.434 7.88086V8.98242C113.109 9.07227 112.797 9.11719 112.496 9.11719C111.402 9.11719 110.855 8.51367 110.855 7.30664V3.71484H109.812V2.66016H110.855V1.11914H112.279Z" fill="white"/>
<path d="M117.283 9.11719C116.381 9.11719 115.648 8.83398 115.086 8.26758C114.527 7.69727 114.248 6.93945 114.248 5.99414V5.81836C114.248 5.18555 114.369 4.62109 114.611 4.125C114.857 3.625 115.201 3.23633 115.643 2.95898C116.084 2.68164 116.576 2.54297 117.119 2.54297C117.982 2.54297 118.648 2.81836 119.117 3.36914C119.59 3.91992 119.826 4.69922 119.826 5.70703V6.28125H115.684C115.727 6.80469 115.9 7.21875 116.205 7.52344C116.514 7.82812 116.9 7.98047 117.365 7.98047C118.018 7.98047 118.549 7.7168 118.959 7.18945L119.727 7.92188C119.473 8.30078 119.133 8.5957 118.707 8.80664C118.285 9.01367 117.811 9.11719 117.283 9.11719ZM117.113 3.68555C116.723 3.68555 116.406 3.82227 116.164 4.0957C115.926 4.36914 115.773 4.75 115.707 5.23828H118.42V5.13281C118.389 4.65625 118.262 4.29688 118.039 4.05469C117.816 3.80859 117.508 3.68555 117.113 3.68555Z" fill="white"/>
<path d="M122.258 2.66016L122.299 3.39258C122.768 2.82617 123.383 2.54297 124.145 2.54297C125.465 2.54297 126.137 3.29883 126.16 4.81055V9H124.736V4.89258C124.736 4.49023 124.648 4.19336 124.473 4.00195C124.301 3.80664 124.018 3.70898 123.623 3.70898C123.049 3.70898 122.621 3.96875 122.34 4.48828V9H120.916V2.66016H122.258Z" fill="white"/>
<path d="M131.17 7.27734C131.17 7.02344 131.064 6.83008 130.854 6.69727C130.646 6.56445 130.301 6.44727 129.816 6.3457C129.332 6.24414 128.928 6.11523 128.604 5.95898C127.893 5.61523 127.537 5.11719 127.537 4.46484C127.537 3.91797 127.768 3.46094 128.229 3.09375C128.689 2.72656 129.275 2.54297 129.986 2.54297C130.744 2.54297 131.355 2.73047 131.82 3.10547C132.289 3.48047 132.523 3.9668 132.523 4.56445H131.1C131.1 4.29102 130.998 4.06445 130.795 3.88477C130.592 3.70117 130.322 3.60938 129.986 3.60938C129.674 3.60938 129.418 3.68164 129.219 3.82617C129.023 3.9707 128.926 4.16406 128.926 4.40625C128.926 4.625 129.018 4.79492 129.201 4.91602C129.385 5.03711 129.756 5.16016 130.314 5.28516C130.873 5.40625 131.311 5.55273 131.627 5.72461C131.947 5.89258 132.184 6.0957 132.336 6.33398C132.492 6.57227 132.57 6.86133 132.57 7.20117C132.57 7.77148 132.334 8.23438 131.861 8.58984C131.389 8.94141 130.77 9.11719 130.004 9.11719C129.484 9.11719 129.021 9.02344 128.615 8.83594C128.209 8.64844 127.893 8.39062 127.666 8.0625C127.439 7.73438 127.326 7.38086 127.326 7.00195H128.709C128.729 7.33789 128.855 7.59766 129.09 7.78125C129.324 7.96094 129.635 8.05078 130.021 8.05078C130.396 8.05078 130.682 7.98047 130.877 7.83984C131.072 7.69531 131.17 7.50781 131.17 7.27734Z" fill="white"/>
<path d="M135.33 9H133.906V2.66016H135.33V9ZM133.818 1.01367C133.818 0.794922 133.887 0.613281 134.023 0.46875C134.164 0.324219 134.363 0.251953 134.621 0.251953C134.879 0.251953 135.078 0.324219 135.219 0.46875C135.359 0.613281 135.43 0.794922 135.43 1.01367C135.43 1.22852 135.359 1.4082 135.219 1.55273C135.078 1.69336 134.879 1.76367 134.621 1.76367C134.363 1.76367 134.164 1.69336 134.023 1.55273C133.887 1.4082 133.818 1.22852 133.818 1.01367Z" fill="white"/>
<path d="M138.67 1.11914V2.66016H139.789V3.71484H138.67V7.25391C138.67 7.49609 138.717 7.67188 138.811 7.78125C138.908 7.88672 139.08 7.93945 139.326 7.93945C139.49 7.93945 139.656 7.91992 139.824 7.88086V8.98242C139.5 9.07227 139.188 9.11719 138.887 9.11719C137.793 9.11719 137.246 8.51367 137.246 7.30664V3.71484H136.203V2.66016H137.246V1.11914H138.67Z" fill="white"/>
<path d="M143.1 6.96094L144.389 2.66016H145.906L143.387 9.96094C143 11.0273 142.344 11.5605 141.418 11.5605C141.211 11.5605 140.982 11.5254 140.732 11.4551V10.3535L141.002 10.3711C141.361 10.3711 141.631 10.3047 141.811 10.1719C141.994 10.043 142.139 9.82422 142.244 9.51562L142.449 8.9707L140.223 2.66016H141.758L143.1 6.96094Z" fill="white"/>
<path d="M8.18555 163.191H4.68164V165.816H8.77734V167H3.19922V158.469H8.73633V159.664H4.68164V162.02H8.18555V163.191Z" fill="white"/>
<path d="M11.168 160.66L11.209 161.393C11.6777 160.826 12.293 160.543 13.0547 160.543C14.375 160.543 15.0469 161.299 15.0703 162.811V167H13.6465V162.893C13.6465 162.49 13.5586 162.193 13.3828 162.002C13.2109 161.807 12.9277 161.709 12.5332 161.709C11.959 161.709 11.5312 161.969 11.25 162.488V167H9.82617V160.66H11.168Z" fill="white"/>
<path d="M19.3184 167.117C18.416 167.117 17.6836 166.834 17.1211 166.268C16.5625 165.697 16.2832 164.939 16.2832 163.994V163.818C16.2832 163.186 16.4043 162.621 16.6465 162.125C16.8926 161.625 17.2363 161.236 17.6777 160.959C18.1191 160.682 18.6113 160.543 19.1543 160.543C20.0176 160.543 20.6836 160.818 21.1523 161.369C21.625 161.92 21.8613 162.699 21.8613 163.707V164.281H17.7188C17.7617 164.805 17.9355 165.219 18.2402 165.523C18.5488 165.828 18.9355 165.98 19.4004 165.98C20.0527 165.98 20.584 165.717 20.9941 165.189L21.7617 165.922C21.5078 166.301 21.168 166.596 20.7422 166.807C20.3203 167.014 19.8457 167.117 19.3184 167.117ZM19.1484 161.686C18.7578 161.686 18.4414 161.822 18.1992 162.096C17.9609 162.369 17.8086 162.75 17.7422 163.238H20.4551V163.133C20.4238 162.656 20.2969 162.297 20.0742 162.055C19.8516 161.809 19.543 161.686 19.1484 161.686Z" fill="white"/>
<path d="M26.291 161.961C26.1035 161.93 25.9102 161.914 25.7109 161.914C25.0586 161.914 24.6191 162.164 24.3926 162.664V167H22.9688V160.66H24.3281L24.3633 161.369C24.707 160.818 25.1836 160.543 25.793 160.543C25.9961 160.543 26.1641 160.57 26.2969 160.625L26.291 161.961Z" fill="white"/>
<path d="M26.8242 163.783C26.8242 162.799 27.0547 162.014 27.5156 161.428C27.9805 160.838 28.5957 160.543 29.3613 160.543C30.084 160.543 30.6523 160.795 31.0664 161.299L31.1309 160.66H32.4141V166.807C32.4141 167.639 32.1543 168.295 31.6348 168.775C31.1191 169.256 30.4219 169.496 29.543 169.496C29.0781 169.496 28.623 169.398 28.1777 169.203C27.7363 169.012 27.4004 168.76 27.1699 168.447L27.8438 167.592C28.2812 168.111 28.8203 168.371 29.4609 168.371C29.9336 168.371 30.3066 168.242 30.5801 167.984C30.8535 167.73 30.9902 167.355 30.9902 166.859V166.432C30.5801 166.889 30.0332 167.117 29.3496 167.117C28.6074 167.117 28 166.822 27.5273 166.232C27.0586 165.643 26.8242 164.826 26.8242 163.783ZM28.2422 163.906C28.2422 164.543 28.3711 165.045 28.6289 165.412C28.8906 165.775 29.252 165.957 29.7129 165.957C30.2871 165.957 30.7129 165.711 30.9902 165.219V162.43C30.7207 161.949 30.2988 161.709 29.7246 161.709C29.2559 161.709 28.8906 161.895 28.6289 162.266C28.3711 162.637 28.2422 163.184 28.2422 163.906Z" fill="white"/>
<path d="M36.0996 164.961L37.3887 160.66H38.9062L36.3867 167.961C36 169.027 35.3438 169.561 34.418 169.561C34.2109 169.561 33.9824 169.525 33.7324 169.455V168.354L34.002 168.371C34.3613 168.371 34.6309 168.305 34.8105 168.172C34.9941 168.043 35.1387 167.824 35.2441 167.516L35.4492 166.971L33.2227 160.66H34.7578L36.0996 164.961Z" fill="white"/>
<path d="M207.326 164.803C207.326 164.428 207.193 164.139 206.928 163.936C206.666 163.732 206.191 163.527 205.504 163.32C204.816 163.113 204.27 162.883 203.863 162.629C203.086 162.141 202.697 161.504 202.697 160.719C202.697 160.031 202.977 159.465 203.535 159.02C204.098 158.574 204.826 158.352 205.721 158.352C206.314 158.352 206.844 158.461 207.309 158.68C207.773 158.898 208.139 159.211 208.404 159.617C208.67 160.02 208.803 160.467 208.803 160.959H207.326C207.326 160.514 207.186 160.166 206.904 159.916C206.627 159.662 206.229 159.535 205.709 159.535C205.225 159.535 204.848 159.639 204.578 159.846C204.312 160.053 204.18 160.342 204.18 160.713C204.18 161.025 204.324 161.287 204.613 161.498C204.902 161.705 205.379 161.908 206.043 162.107C206.707 162.303 207.24 162.527 207.643 162.781C208.045 163.031 208.34 163.32 208.527 163.648C208.715 163.973 208.809 164.354 208.809 164.791C208.809 165.502 208.535 166.068 207.988 166.49C207.445 166.908 206.707 167.117 205.773 167.117C205.156 167.117 204.588 167.004 204.068 166.777C203.553 166.547 203.15 166.23 202.861 165.828C202.576 165.426 202.434 164.957 202.434 164.422H203.916C203.916 164.906 204.076 165.281 204.396 165.547C204.717 165.812 205.176 165.945 205.773 165.945C206.289 165.945 206.676 165.842 206.934 165.635C207.195 165.424 207.326 165.146 207.326 164.803Z" fill="white"/>
<path d="M211.756 159.119V160.66H212.875V161.715H211.756V165.254C211.756 165.496 211.803 165.672 211.896 165.781C211.994 165.887 212.166 165.939 212.412 165.939C212.576 165.939 212.742 165.92 212.91 165.881V166.982C212.586 167.072 212.273 167.117 211.973 167.117C210.879 167.117 210.332 166.514 210.332 165.307V161.715H209.289V160.66H210.332V159.119H211.756Z" fill="white"/>
<path d="M217.287 161.961C217.1 161.93 216.906 161.914 216.707 161.914C216.055 161.914 215.615 162.164 215.389 162.664V167H213.965V160.66H215.324L215.359 161.369C215.703 160.818 216.18 160.543 216.789 160.543C216.992 160.543 217.16 160.57 217.293 160.625L217.287 161.961Z" fill="white"/>
<path d="M220.861 167.117C219.959 167.117 219.227 166.834 218.664 166.268C218.105 165.697 217.826 164.939 217.826 163.994V163.818C217.826 163.186 217.947 162.621 218.189 162.125C218.436 161.625 218.779 161.236 219.221 160.959C219.662 160.682 220.154 160.543 220.697 160.543C221.561 160.543 222.227 160.818 222.695 161.369C223.168 161.92 223.404 162.699 223.404 163.707V164.281H219.262C219.305 164.805 219.479 165.219 219.783 165.523C220.092 165.828 220.479 165.98 220.943 165.98C221.596 165.98 222.127 165.717 222.537 165.189L223.305 165.922C223.051 166.301 222.711 166.596 222.285 166.807C221.863 167.014 221.389 167.117 220.861 167.117ZM220.691 161.686C220.301 161.686 219.984 161.822 219.742 162.096C219.504 162.369 219.352 162.75 219.285 163.238H221.998V163.133C221.967 162.656 221.84 162.297 221.617 162.055C221.395 161.809 221.086 161.686 220.691 161.686Z" fill="white"/>
<path d="M225.836 160.66L225.877 161.393C226.346 160.826 226.961 160.543 227.723 160.543C229.043 160.543 229.715 161.299 229.738 162.811V167H228.314V162.893C228.314 162.49 228.227 162.193 228.051 162.002C227.879 161.807 227.596 161.709 227.201 161.709C226.627 161.709 226.199 161.969 225.918 162.488V167H224.494V160.66H225.836Z" fill="white"/>
<path d="M230.945 163.783C230.945 162.799 231.176 162.014 231.637 161.428C232.102 160.838 232.717 160.543 233.482 160.543C234.205 160.543 234.773 160.795 235.188 161.299L235.252 160.66H236.535V166.807C236.535 167.639 236.275 168.295 235.756 168.775C235.24 169.256 234.543 169.496 233.664 169.496C233.199 169.496 232.744 169.398 232.299 169.203C231.857 169.012 231.521 168.76 231.291 168.447L231.965 167.592C232.402 168.111 232.941 168.371 233.582 168.371C234.055 168.371 234.428 168.242 234.701 167.984C234.975 167.73 235.111 167.355 235.111 166.859V166.432C234.701 166.889 234.154 167.117 233.471 167.117C232.729 167.117 232.121 166.822 231.648 166.232C231.18 165.643 230.945 164.826 230.945 163.783ZM232.363 163.906C232.363 164.543 232.492 165.045 232.75 165.412C233.012 165.775 233.373 165.957 233.834 165.957C234.408 165.957 234.834 165.711 235.111 165.219V162.43C234.842 161.949 234.42 161.709 233.846 161.709C233.377 161.709 233.012 161.895 232.75 162.266C232.492 162.637 232.363 163.184 232.363 163.906Z" fill="white"/>
<path d="M239.787 159.119V160.66H240.906V161.715H239.787V165.254C239.787 165.496 239.834 165.672 239.928 165.781C240.025 165.887 240.197 165.939 240.443 165.939C240.607 165.939 240.773 165.92 240.941 165.881V166.982C240.617 167.072 240.305 167.117 240.004 167.117C238.91 167.117 238.363 166.514 238.363 165.307V161.715H237.32V160.66H238.363V159.119H239.787Z" fill="white"/>
<path d="M243.402 161.352C243.867 160.812 244.455 160.543 245.166 160.543C246.518 160.543 247.203 161.314 247.223 162.857V167H245.799V162.91C245.799 162.473 245.703 162.164 245.512 161.984C245.324 161.801 245.047 161.709 244.68 161.709C244.109 161.709 243.684 161.963 243.402 162.471V167H241.979V158H243.402V161.352Z" fill="white"/>
</svg>
